<svg xmlns="http://www.w3.org/2000/svg" width="27.898" height="32.548" viewBox="0 0 27.898 32.548">
  <g id="file-group-solid" transform="translate(-8 -6)">
    <path id="Path_382" data-name="Path 382" d="M34.086,10H13.162A1.162,1.162,0,0,0,12,11.162V36.736A1.162,1.162,0,0,0,13.162,37.9H34.086a1.162,1.162,0,0,0,1.162-1.162V11.162A1.162,1.162,0,0,0,34.086,10ZM30.6,28.6H16.65V26.274H30.6Zm0-4.65H16.65V21.624H30.6Zm0-4.65H16.65V16.975H30.6Z" transform="translate(0.65 0.65)" fill="#3057e0"/>
    <path id="Path_384" data-name="Path 384" d="M10.325,31.574V8.325H31.249V7.162A1.162,1.162,0,0,0,30.086,6H9.162A1.162,1.162,0,0,0,8,7.162V32.736A1.162,1.162,0,0,0,9.162,33.9h1.162Z" fill="#3057e0"/>
  </g>
</svg>
