<svg xmlns="http://www.w3.org/2000/svg" width="35.627" height="41.565" viewBox="0 0 35.627 41.565">
  <g id="file-earmark-medical-fill" transform="translate(-4.5 -2.25)">
    <path id="Path_315" data-name="Path 315" d="M4.5,8.188A5.938,5.938,0,0,1,10.438,2.25H26.152a2.969,2.969,0,0,1,2.1.87L39.257,14.126a2.969,2.969,0,0,1,.87,2.1V37.877a5.938,5.938,0,0,1-5.938,5.938H10.438A5.938,5.938,0,0,1,4.5,37.877Zm20.782,5.938V5.219L37.158,17.095H28.251A2.969,2.969,0,0,1,25.282,14.126ZM17.86,15.61a1.484,1.484,0,1,0-2.969,0v1.883l-1.63-.941a1.484,1.484,0,1,0-1.485,2.571l1.63.941L11.777,21a1.484,1.484,0,1,0,1.485,2.571l1.629-.941v1.883a1.484,1.484,0,0,0,2.969,0V22.634l1.63.941A1.484,1.484,0,1,0,20.974,21l-1.63-.941,1.63-.941a1.484,1.484,0,1,0-1.485-2.571l-1.629.941V15.61ZM11.922,28.97a1.484,1.484,0,1,0,0,2.969H26.767a1.484,1.484,0,0,0,0-2.969Zm0,5.938a1.484,1.484,0,0,0,0,2.969H26.767a1.484,1.484,0,0,0,0-2.969Z" transform="translate(0 0)" fill="#4b44f9" fill-rule="evenodd"/>
  </g>
</svg>
