<svg xmlns="http://www.w3.org/2000/svg" width="40.254" height="40.189" viewBox="0 0 40.254 40.189">
  <defs>
    <style>
      .cls-1 {
        fill: #d5bfff;
      }

      .cls-2 {
        fill: #fff;
      }
    </style>
  </defs>
  <g id="Group_36" data-name="Group 36" transform="translate(-973 -2618.072)">
    <g id="bar-chart-fill" transform="translate(976.584 2618.072)">
      <path id="Path_1" data-name="Path 1" class="cls-1" d="M4.869,22.5h5.239a2.619,2.619,0,0,1,2.619,2.619v7.858A2.619,2.619,0,0,1,10.108,35.6H4.869A2.619,2.619,0,0,1,2.25,32.977V25.119A2.619,2.619,0,0,1,4.869,22.5Z" transform="translate(-2.25 1.074)"/>
      <path id="Path_2" data-name="Path 2" class="cls-1" d="M16.119,13.5h5.239a2.619,2.619,0,0,1,2.619,2.619V34.454a2.619,2.619,0,0,1-2.619,2.619H16.119A2.619,2.619,0,0,1,13.5,34.454V16.119A2.619,2.619,0,0,1,16.119,13.5Z" transform="translate(-0.404 -0.404)"/>
      <path id="Path_3" data-name="Path 3" class="cls-1" d="M27.369,2.25h5.239a2.619,2.619,0,0,1,2.619,2.619V36.3a2.619,2.619,0,0,1-2.619,2.619H27.369A2.619,2.619,0,0,1,24.75,36.3V4.869A2.619,2.619,0,0,1,27.369,2.25Z" transform="translate(1.443 -2.25)"/>
    </g>
    <g id="bar-chart-fill-2" data-name="bar-chart-fill" transform="translate(973 2621.592)">
      <path id="Path_1-2" data-name="Path 1" class="cls-2" d="M4.869,22.5h5.239a2.619,2.619,0,0,1,2.619,2.619v7.858A2.619,2.619,0,0,1,10.108,35.6H4.869A2.619,2.619,0,0,1,2.25,32.977V25.119A2.619,2.619,0,0,1,4.869,22.5Z" transform="translate(-2.25 1.074)"/>
      <path id="Path_2-2" data-name="Path 2" class="cls-2" d="M16.119,13.5h5.239a2.619,2.619,0,0,1,2.619,2.619V34.454a2.619,2.619,0,0,1-2.619,2.619H16.119A2.619,2.619,0,0,1,13.5,34.454V16.119A2.619,2.619,0,0,1,16.119,13.5Z" transform="translate(-0.404 -0.404)"/>
      <path id="Path_3-2" data-name="Path 3" class="cls-2" d="M27.369,2.25h5.239a2.619,2.619,0,0,1,2.619,2.619V36.3a2.619,2.619,0,0,1-2.619,2.619H27.369A2.619,2.619,0,0,1,24.75,36.3V4.869A2.619,2.619,0,0,1,27.369,2.25Z" transform="translate(1.443 -2.25)"/>
    </g>
  </g>
</svg>
