<svg id="Group_34" data-name="Group34" xmlns="http://www.w3.org/2000/svg" width="30.467" height="31.458" viewBox="0 0 30.467 31.458">
  <g id="Group_15" data-name="Group 15" transform="translate(10.389 13.514)">
    <g id="Group_14" data-name="Group 14">
      <g id="Group_13" data-name="Group 13">
        <path id="Path_316" data-name="Path 316" d="M41,35.867,39.517,35.6a7.324,7.324,0,0,0-.71-1.7l.871-1.243a.375.375,0,0,0-.04-.483l-1.9-1.888a.381.381,0,0,0-.483-.045l-1.238.866a7.081,7.081,0,0,0-1.7-.695l-.267-1.5a.382.382,0,0,0-.372-.312H31.011a.382.382,0,0,0-.372.312l-.267,1.5a7.081,7.081,0,0,0-1.7.695l-1.243-.866a.381.381,0,0,0-.483.045l-1.893,1.888a.381.381,0,0,0-.045.483l.871,1.243a7.439,7.439,0,0,0-.7,1.7l-1.49.267a.382.382,0,0,0-.312.372v2.673a.378.378,0,0,0,.312.372l1.495.257a7.152,7.152,0,0,0,.362,1.032.267.267,0,0,0,.03.05,5.887,5.887,0,0,0,.307.619l-.871,1.243a.381.381,0,0,0,.045.483l1.893,1.893a.381.381,0,0,0,.483.045l1.243-.871a6.889,6.889,0,0,0,1.7.695l.267,1.5a.382.382,0,0,0,.372.312h2.673a.382.382,0,0,0,.372-.312l.267-1.495a7.31,7.31,0,0,0,1.7-.7l1.238.866a.375.375,0,0,0,.483-.04l1.9-1.893a.375.375,0,0,0,.04-.483l-.871-1.243a7.273,7.273,0,0,0,.7-1.7L41,39.285a.378.378,0,0,0,.312-.372V36.24A.382.382,0,0,0,41,35.867ZM32.44,40.941a.139.139,0,0,0-.045.005H32.37a3.375,3.375,0,1,1-.025-6.75.946.946,0,0,1,.1.005,3.371,3.371,0,0,1,0,6.74Z" transform="translate(-23.375 -28.599)" fill="#4b44f9"/>
      </g>
    </g>
  </g>
  <g id="Group_18" data-name="Group 18" transform="translate(20.043 3.991)">
    <g id="Group_17" data-name="Group 17">
      <g id="Group_16" data-name="Group 16">
        <path id="Path_317" data-name="Path 317" d="M52.778,14.461a.37.37,0,0,0,.181-.448L52.5,12.578a.37.37,0,0,0-.408-.257l-.74.1a4.357,4.357,0,0,0-.559-.654l.221-.72a.381.381,0,0,0-.191-.448l-1.339-.69a.389.389,0,0,0-.473.106l-.458.6a4.087,4.087,0,0,0-.861-.076l-.352-.659a.37.37,0,0,0-.448-.181l-1.435.458a.37.37,0,0,0-.257.408l.1.745a4.443,4.443,0,0,0-.659.559l-.72-.216a.387.387,0,0,0-.448.191l-.685,1.334a.383.383,0,0,0,.111.473l.594.453a4.469,4.469,0,0,0-.07.866l-.664.352a.37.37,0,0,0-.181.448l.458,1.429a.37.37,0,0,0,.408.257l.75-.1a4.353,4.353,0,0,0,.559.659l-.221.72a.381.381,0,0,0,.191.448l1.334.685a.388.388,0,0,0,.473-.106l.453-.6a4.5,4.5,0,0,0,.866.07l.352.664a.376.376,0,0,0,.332.2.312.312,0,0,0,.116-.02l1.435-.463a.37.37,0,0,0,.257-.408l-.1-.745a4.438,4.438,0,0,0,.664-.559l.715.221a.381.381,0,0,0,.448-.191l.685-1.339a.388.388,0,0,0-.106-.473l-.6-.453a4.085,4.085,0,0,0,.07-.861Zm-3.549,1.178a1.641,1.641,0,1,1-.71-2.21A1.64,1.64,0,0,1,49.229,15.639Z" transform="translate(-42.555 -9.679)" fill="#4b44f9"/>
      </g>
    </g>
  </g>
  <g id="Group_21" data-name="Group 21" transform="translate(0 11.279)">
    <g id="Group_20" data-name="Group 20">
      <g id="Group_19" data-name="Group 19">
        <path id="Path_318" data-name="Path 318" d="M12.278,31.785a20.649,20.649,0,0,0,2.4-.136l-.534-.765a1.148,1.148,0,0,1,.131-1.45l1.893-1.888a1.111,1.111,0,0,1,.8-.332,1.132,1.132,0,0,1,.634.191l.881.614a7.581,7.581,0,0,1,.982-.4l.181-1.042a1.149,1.149,0,0,1,1.117-.936h1.062v-1.48c-1.52,1.731-5.174,2.924-9.543,2.924S4.255,25.89,2.735,24.159V27.8C2.735,29.957,7.1,31.785,12.278,31.785Z" transform="translate(-2.735 -24.159)" fill="#4b44f9"/>
      </g>
    </g>
  </g>
  <g id="Group_24" data-name="Group 24" transform="translate(0 16.726)">
    <g id="Group_23" data-name="Group 23">
      <g id="Group_22" data-name="Group 22">
        <path id="Path_319" data-name="Path 319" d="M2.775,39.846c.015.055.03.111.05.166.664,1.973,4.731,3.458,9.453,3.458a19.565,19.565,0,0,0,2.044-.1L13.31,43.2a1.126,1.126,0,0,1-.941-1.117V39.408A1.133,1.133,0,0,1,13.29,38.3l1.052-.191c.035-.1.07-.2.111-.3-.7.07-1.429.106-2.174.106-4.374,0-8.028-1.2-9.543-2.934v4.56a.983.983,0,0,0,.01.116C2.755,39.736,2.765,39.791,2.775,39.846Z" transform="translate(-2.735 -34.979)" fill="#4b44f9"/>
      </g>
    </g>
  </g>
  <g id="Group_27" data-name="Group 27" transform="translate(0.001)">
    <g id="Group_26" data-name="Group 26">
      <g id="Group_25" data-name="Group 25">
        <path id="Path_320" data-name="Path 320" d="M12.28,8.641c5.708,0,9.543-1.781,9.543-3.445S17.988,1.75,12.28,1.75,2.737,3.531,2.737,5.2,6.571,8.641,12.28,8.641Z" transform="translate(-2.737 -1.75)" fill="#4b44f9"/>
      </g>
    </g>
  </g>
  <g id="Group_30" data-name="Group 30" transform="translate(0 23.073)">
    <g id="Group_29" data-name="Group 29">
      <g id="Group_28" data-name="Group 28">
        <path id="Path_321" data-name="Path 321" d="M14.272,52.934a1.136,1.136,0,0,1-.141-1.435l.619-.881c-.035-.07-.106-.227-.106-.227a21.44,21.44,0,0,1-2.366.126c-4.324,0-8.023-1.183-9.543-2.929v3.644c0,2.159,4.369,3.986,9.543,3.986a20.738,20.738,0,0,0,3.916-.362l-.03-.03Z" transform="translate(-2.735 -47.589)" fill="#4b44f9"/>
      </g>
    </g>
  </g>
  <g id="Group_33" data-name="Group 33" transform="translate(0 5.047)">
    <g id="Group_32" data-name="Group 32">
      <g id="Group_31" data-name="Group 31">
        <path id="Path_322" data-name="Path 322" d="M12.278,20.179c5.173,0,9.543-1.826,9.543-3.986V11.778c-1.516,1.538-5.168,2.6-9.543,2.6s-8.029-1.061-9.544-2.6v4.416C2.735,18.353,7.106,20.179,12.278,20.179Z" transform="translate(-2.735 -11.777)" fill="#4b44f9"/>
      </g>
    </g>
  </g>
</svg>
