<svg xmlns="http://www.w3.org/2000/svg" width="61.969" height="61.967" viewBox="0 0 61.969 61.967">
  <defs>
    <style>
      .cls-1 {
        fill: #fff;
      }
    </style>
  </defs>
  <path id="law" class="cls-1" d="M60.877,60.877a3.653,3.653,0,0,1-5.205,0L28.5,33.707,22.148,40.06v.06a3.723,3.723,0,0,1-5.264,5.265L1.09,29.591a3.723,3.723,0,0,1,0-5.264,3.6,3.6,0,0,1,2.632-1.09,3.577,3.577,0,0,1,2.632,1.09l.06.06L24.386,6.415l-.06-.06a3.586,3.586,0,0,1-1.09-2.632A3.589,3.589,0,0,1,24.327,1.09a3.723,3.723,0,0,1,5.264,0L45.386,16.884a3.722,3.722,0,0,1-5.264,5.264l-.06-.06-6.353,6.353L60.879,55.672a3.653,3.653,0,0,1,0,5.205ZM20.394,15.129l-5.2,5.265L26.143,31.347l5.2-5.2Z"/>
</svg>
