<svg xmlns="http://www.w3.org/2000/svg" width="41.305" height="48.649" viewBox="0 0 41.305 48.649">
  <g id="noun_signature_1720818" transform="translate(-11.864 -8.174)">
    <path id="Path_330" data-name="Path 330" d="M29.224,56.823c-1.9,0-3.7-.1-5.132-.25-9.526-.967-10.36-6.029-10.391-6.244a.5.5,0,0,1,.424-.566.507.507,0,0,1,.566.424c.028.181.813,4.511,9.5,5.393,7.331.746,15.776-.074,17-3.058.656-1.607-.868-3.953-4.408-6.783-2.866-2.292-4.01-4.362-3.4-6.153C35.132,34.45,50.871,34.026,52.66,34a.526.526,0,0,1,.509.491.5.5,0,0,1-.491.509c-4.666.082-17.059,1.125-18.35,4.913-.46,1.351.575,3.05,3.078,5.05,3.978,3.181,5.563,5.854,4.709,7.942C40.853,55.989,34.61,56.823,29.224,56.823Z" fill="#4b44f9"/>
    <path id="Path_331" data-name="Path 331" d="M22.249,22.894l-10.07,17,8.856,5.234L31.1,28.138Z" fill="#4b44f9"/>
    <path id="Path_332" data-name="Path 332" d="M38.923,14.648a.5.5,0,0,0-.229-.306L30.7,9.608,28.4,8.243a.507.507,0,0,0-.379-.054.5.5,0,0,0-.306.229l-6.073,10.25a.5.5,0,0,0,.86.51L28.32,9.359l1.442.854-5.818,9.819s0,0,0,0l-1.185,2,8.851,5.244,7.259-12.25A.5.5,0,0,0,38.923,14.648Z" fill="#4b44f9"/>
    <path id="Path_333" data-name="Path 333" d="M11.864,40.866l1.087,7.054c0,.018.013.032.017.05a.35.35,0,0,0,.007.045c0,.009.012.013.016.021a.49.49,0,0,0,.16.207.271.271,0,0,0,.037.021.493.493,0,0,0,.257.08h0a.5.5,0,0,0,.076-.006c.015,0,.026-.012.041-.015a.512.512,0,0,0,.054-.01l6.721-2.439Z" fill="#4b44f9"/>
  </g>
</svg>
