<svg xmlns="http://www.w3.org/2000/svg" width="45.688" height="46.347" viewBox="0 0 45.688 46.347">
  <g id="settings-solid-alerted" transform="translate(-2.97 -0.506)">
    <path id="Path_328" data-name="Path 328" d="M45.189,21.143l-1.526-.456H31.325a7.845,7.845,0,1,1-6.918-4.136,7.887,7.887,0,0,1,.927,0,5.249,5.249,0,0,1,.5-3.723l2.981-5.163L27.588,3.628A.87.87,0,0,0,26.818,3H22a.87.87,0,0,0-.827.613L19.744,8.32a16.588,16.588,0,0,0-3.395,1.426L12.07,7.436a.87.87,0,0,0-1.027.157l-3.466,3.38A.87.87,0,0,0,7.42,12l2.311,4.279A16.588,16.588,0,0,0,8.3,19.659L3.583,21.086a.87.87,0,0,0-.613.827v4.821a.87.87,0,0,0,.613.827l4.75,1.426a16.574,16.574,0,0,0,1.426,3.323L7.42,36.79a.87.87,0,0,0,.157,1.027l3.409,3.409a.87.87,0,0,0,1.027.157l4.407-2.353A16.616,16.616,0,0,0,19.7,40.37l1.426,4.807a.87.87,0,0,0,.827.613h4.821a.87.87,0,0,0,.827-.613l1.426-4.821a16.588,16.588,0,0,0,3.252-1.341l4.436,2.368a.87.87,0,0,0,1.027-.157l3.409-3.409a.87.87,0,0,0,.157-1.027l-2.368-4.422A16.588,16.588,0,0,0,40.3,29.1L45.1,27.675a.87.87,0,0,0,.613-.827V21.984a.87.87,0,0,0-.528-.842Z" transform="translate(0 1.063)" fill="#4b44f9"/>
    <path id="Path_329" data-name="Path 329" d="M29.383,1.41,21.225,15.474a1.826,1.826,0,0,0,1.569,2.853H39.125a1.826,1.826,0,0,0,1.569-2.853L32.535,1.41a1.826,1.826,0,0,0-3.152,0Z" transform="translate(7.647 0)" fill="#4b44f9"/>
  </g>
</svg>
