<svg xmlns="http://www.w3.org/2000/svg" width="42.454" height="46.556" viewBox="0 0 42.454 46.556">
  <g id="tax" transform="translate(-13.085)">
    <path id="Path_7" data-name="Path 7" d="M127.681,151.366a12.245,12.245,0,1,0,12.245-12.245A12.245,12.245,0,0,0,127.681,151.366Zm7.462-4.782a1.629,1.629,0,1,1-.478,1.153A1.642,1.642,0,0,1,135.143,146.584Zm9.566,9.564a1.629,1.629,0,1,1,.478-1.152A1.643,1.643,0,0,1,144.709,156.148Zm-.022-9.543a1.63,1.63,0,0,1,0,2.305l-7.216,7.216a1.63,1.63,0,1,1-2.306-2.305l7.216-7.216A1.631,1.631,0,0,1,144.687,146.605Z" transform="translate(-96.633 -117.313)" fill="#5044fc"/>
    <path id="Path_8" data-name="Path 8" d="M27.788,34.053A15.523,15.523,0,0,1,43.294,18.548q.425,0,.845.023V1.63A1.63,1.63,0,0,0,42.508,0H14.715a1.63,1.63,0,0,0-1.63,1.63v43.3a1.63,1.63,0,0,0,1.63,1.63H34.135A15.493,15.493,0,0,1,27.788,34.053ZM22.3,8.659H33.849a1.63,1.63,0,0,1,0,3.26H22.3a1.63,1.63,0,0,1,0-3.26Zm0,8.659H33.849a1.63,1.63,0,0,1,0,3.26H22.3a1.63,1.63,0,0,1,0-3.26ZM25.19,29.238H22.3a1.63,1.63,0,0,1,0-3.26H25.19a1.63,1.63,0,1,1,0,3.26Z" fill="#5044fc"/>
  </g>
</svg>
