<svg id="calendar3-fill" xmlns="http://www.w3.org/2000/svg" width="19.221" height="19.221" viewBox="0 0 19.221 19.221">
  <defs>
    <style>
      .cls-1, .cls-2 {
        fill: #3057e0;
      }

      .cls-2 {
        fill-rule: evenodd;
      }
    </style>
  </defs>
  <path id="Path_389" data-name="Path 389" class="cls-1" d="M0,2.4A2.4,2.4,0,0,1,2.4,0H16.818a2.4,2.4,0,0,1,2.4,2.4Z"/>
  <path id="Path_390" data-name="Path 390" class="cls-2" d="M0,6.75H19.221V19.964a2.4,2.4,0,0,1-2.4,2.4H2.4a2.4,2.4,0,0,1-2.4-2.4Zm7.808,4.805a1.2,1.2,0,1,0-1.2-1.2A1.2,1.2,0,0,0,7.808,11.555Zm4.805-1.2a1.2,1.2,0,1,1-1.2-1.2A1.2,1.2,0,0,1,12.614,10.354Zm2.4,1.2a1.2,1.2,0,1,0-1.2-1.2A1.2,1.2,0,0,0,15.016,11.555Zm-9.61,2.4a1.2,1.2,0,1,1-1.2-1.2A1.2,1.2,0,0,1,5.406,13.958Zm2.4,1.2a1.2,1.2,0,1,0-1.2-1.2A1.2,1.2,0,0,0,7.808,15.159Zm4.805-1.2a1.2,1.2,0,1,1-1.2-1.2A1.2,1.2,0,0,1,12.614,13.958Zm2.4,1.2a1.2,1.2,0,1,0-1.2-1.2A1.2,1.2,0,0,0,15.016,15.159Zm-9.61,2.4a1.2,1.2,0,1,1-1.2-1.2A1.2,1.2,0,0,1,5.406,17.562Zm2.4,1.2a1.2,1.2,0,1,0-1.2-1.2A1.2,1.2,0,0,0,7.808,18.763Zm4.805-1.2a1.2,1.2,0,1,1-1.2-1.2A1.2,1.2,0,0,1,12.614,17.562Z" transform="translate(0 -3.146)"/>
</svg>
