<svg xmlns="http://www.w3.org/2000/svg" width="18.414" height="21.033" viewBox="0 0 18.414 21.033">
  <defs>
    <style>
      .cls-1 {
        fill: #3057e0;
      }
    </style>
  </defs>
  <path id="globealt" class="cls-1" d="M15.323,15.323A10.346,10.346,0,0,1,9.243,18.3v1.417h1.972a.657.657,0,0,1,0,1.315H4.642a.657.657,0,0,1,0-1.315H6.614V18.3A10.161,10.161,0,0,1,.473,15.323L0,14.85l1.889-1.889A7.675,7.675,0,0,1,.061,7.908a7.858,7.858,0,0,1,3.913-6.83A7.726,7.726,0,0,1,7.928.02a7.622,7.622,0,0,1,5.053,1.849L14.85,0l.473.473a10.448,10.448,0,0,1,2.732,10.116A10.46,10.46,0,0,1,15.323,15.323ZM14.83,1.869q-.267.287-.924.924A7.656,7.656,0,0,1,15.8,7.908a7.784,7.784,0,0,1-1.048,3.954,7.669,7.669,0,0,1-2.865,2.865,7.79,7.79,0,0,1-3.954,1.048,7.656,7.656,0,0,1-5.115-1.889q-.164.164-.924.945a9.13,9.13,0,0,0,8.555,1.9,9.031,9.031,0,0,0,3.944-2.342,9.131,9.131,0,0,0,2.485-8.462A9.167,9.167,0,0,0,14.83,1.869Z"/>
</svg>
