<svg xmlns="http://www.w3.org/2000/svg" width="24.974" height="16.65" viewBox="0 0 24.974 16.65">
  <defs>
    <style>
      .cls-1 {
        fill: #3057e0;
      }
    </style>
  </defs>
  <path id="graduation-cap" class="cls-1" d="M19.229,7.675l.195,3.426a1.629,1.629,0,0,1-.889,1.387A7.519,7.519,0,0,1,15.988,13.5a15.508,15.508,0,0,1-3.5.374,15.508,15.508,0,0,1-3.5-.374,7.519,7.519,0,0,1-2.547-1.014A1.629,1.629,0,0,1,5.55,11.1l.195-3.426,6.222,1.962a1.828,1.828,0,0,0,1.041,0Zm5.745-3.512a.33.33,0,0,1-.239.336L12.6,8.313a.533.533,0,0,1-.216,0L5.311,6.081A2.645,2.645,0,0,0,4.542,7.29a6.91,6.91,0,0,0-.368,1.935,1.275,1.275,0,0,1,.683,1.181,1.31,1.31,0,0,1-.629,1.16l.629,4.694a.353.353,0,0,1-.347.391H2.428a.353.353,0,0,1-.347-.391l.629-4.694A1.382,1.382,0,0,1,2.786,9.2,6.723,6.723,0,0,1,3.848,5.626L.239,4.5a.356.356,0,0,1,0-.672L12.379.011a.533.533,0,0,1,.216,0l12.14,3.815a.33.33,0,0,1,.239.336Z"/>
</svg>
