<svg xmlns="http://www.w3.org/2000/svg" width="25.151" height="21.827" viewBox="0 0 25.151 21.827">
  <defs>
    <style>
      .cls-1 {
        fill: #3057e0;
      }
    </style>
  </defs>
  <g id="noun_Partner_3659412" transform="translate(-0.529 -2.208)">
    <g id="Group_473" data-name="Group 473" transform="translate(0.529 2.208)">
      <path id="Path_395" data-name="Path 395" class="cls-1" d="M-112.01,198.916a.988.988,0,0,0-.629.23l-1.3,1.073a.981.981,0,0,0-.131,1.392l5.354,6.474.313.378a.98.98,0,0,0,1.392.132l1.3-1.072a.981.981,0,0,0,.132-1.392l-5.667-6.852a.984.984,0,0,0-.763-.362Zm-10.65.558a.989.989,0,0,0-.629.23l-6.85,5.669a.981.981,0,0,0-.132,1.392l1.072,1.3a.98.98,0,0,0,1.392.131l6.85-5.669a.981.981,0,0,0,.132-1.392l-1.072-1.3a.983.983,0,0,0-.763-.362Zm8.034,3.087a5.362,5.362,0,0,0-3.449,1.238l-.012.01,0,0-3.675,3.042a2.59,2.59,0,0,0,3.478.118h0l1.268-1.041a.273.273,0,0,1,.2-.093.273.273,0,0,1,.205.09l.009.01h0l5.314,6.355.143-.118a5.372,5.372,0,0,0,1.944-3.829l-4.749-5.741a5.424,5.424,0,0,0-.673-.044Zm-6.613.906-5.6,4.634a5.434,5.434,0,0,0,.862,3.347,1.482,1.482,0,0,1,1.953.285,1.47,1.47,0,0,1,.282,1.326,1.469,1.469,0,0,1,1.25.525,1.47,1.47,0,0,1,.282,1.326,1.469,1.469,0,0,1,1.25.525,1.478,1.478,0,0,1,.163,1.63,1.478,1.478,0,0,1,1.57.465,1.484,1.484,0,0,1-.106,1.993l.788.953a.983.983,0,0,0,1.376-.029.983.983,0,0,0,.287-1.346h0l-3.23-3.905-.012-.015a.273.273,0,0,1,.05-.383.273.273,0,0,1,.383.05l3.23,3.9a.983.983,0,0,0,1.376-.029.983.983,0,0,0,.287-1.346h0l-3.23-3.905-.012-.015a.273.273,0,0,1,.054-.377.273.273,0,0,1,.378.044l3.23,3.9A.983.983,0,0,0-113,217a.983.983,0,0,0,.287-1.346h0l-3.23-3.905-.012-.015a.273.273,0,0,1,.05-.383.273.273,0,0,1,.383.05l3.23,3.9a.983.983,0,0,0,1.376-.029.982.982,0,0,0,.287-1.345l-6.218-7.437-1.092.9a3.15,3.15,0,0,1-4.441-.383.273.273,0,0,1,.036-.384l3.087-2.556c-.047-.026-.093-.051-.141-.075a5.117,5.117,0,0,0-1.839-.529Zm-3.923,8.277a.95.95,0,0,0-.6.222l-1.04.861a.928.928,0,0,0-.134,1.317.927.927,0,0,0,1.318.115l1.04-.861a.928.928,0,0,0,.134-1.317.919.919,0,0,0-.719-.337Zm1.532,1.852a.951.951,0,0,0-.6.222l-1.04.861A.928.928,0,0,0-125.4,216a.927.927,0,0,0,1.318.115l1.04-.861a.928.928,0,0,0,.134-1.317.919.919,0,0,0-.719-.337Zm1.531,1.852a.951.951,0,0,0-.6.222l-1.04.861a.928.928,0,0,0-.134,1.317.927.927,0,0,0,1.318.115l1.04-.861a.928.928,0,0,0,.134-1.317.919.919,0,0,0-.719-.337Zm1.733,2.1a.951.951,0,0,0-.6.222l-1.04.861a.928.928,0,0,0-.134,1.317.927.927,0,0,0,1.318.115l1.04-.861a.928.928,0,0,0,.134-1.317.919.919,0,0,0-.719-.337Z" transform="translate(130.501 -198.916)"/>
    </g>
  </g>
</svg>
