<svg xmlns="http://www.w3.org/2000/svg" width="27.902" height="22.04" viewBox="0 0 27.902 22.04">
  <defs>
    <style>
      .cls-1 {
        fill: #3057e0;
      }
    </style>
  </defs>
  <g id="noun_technology_concept_4116873" data-name="noun_technology concept_4116873" transform="translate(-5 -14.453)">
    <path id="Path_405" data-name="Path 405" class="cls-1" d="M28.581,27.3a.982.982,0,0,0-.924.654H25.6l-1.486-1.486h1.524a.981.981,0,1,0,0-.654H22.7V25.1l-1.18-.283-.3-.725.636-1.034-.511-.511-1.034.636-.726-.3L19.3,21.7h-.723l-.282,1.18-.726.3-1.033-.636-.511.511.634,1.034c-.117.282-.168.406-.276.665H14.9a.312.312,0,0,0-.039-.047L12.367,22.21H9.411a.981.981,0,1,0,0,.654H12.1l1.888,1.888H12.414a.981.981,0,1,0,0,.654h2.761v.411l1.179.283.3.725-.634,1.034.511.511,1.033-.636.726.3.282,1.18H19.3l.282-1.18.726-.3,1.034.636c.276-.277.234-.234.511-.511l-.636-1.034c.061-.148.1-.252.147-.354H23.19l2.139,2.139h2.328a.981.981,0,1,0,.924-1.308Zm-2.019-1.486a.327.327,0,1,1-.327.327A.328.328,0,0,1,26.562,25.817ZM8.488,22.864a.327.327,0,1,1,.327-.327A.327.327,0,0,1,8.488,22.864Zm3,2.542a.327.327,0,1,1,.327-.327A.327.327,0,0,1,11.489,25.406Zm8.155.749a.988.988,0,1,1,0-1.4A.989.989,0,0,1,19.644,26.155Zm8.936,2.456a.327.327,0,1,1,.327-.327A.327.327,0,0,1,28.581,28.611Zm-6.672,3.471a.922.922,0,0,1-.3,1.268l-4.74,2.911a1.57,1.57,0,0,1-1.625.013L10.233,33.3H5V28.945H8.822l.737-.279a4.219,4.219,0,0,1,3.747.387l3.97,2.531a.92.92,0,0,1-.976,1.561l-2.49-1.585a.327.327,0,0,0-.351.551l3.261,2.077,3.921-2.407A.921.921,0,0,1,21.909,32.081ZM32.9,17.645V22H29.08l-.737.279a4.219,4.219,0,0,1-3.747-.387l-3.97-2.531A.92.92,0,0,1,21.6,17.8l2.49,1.585a.327.327,0,0,0,.351-.551L21.182,16.76l-3.921,2.407A.921.921,0,1,1,16.3,17.6l4.74-2.911a1.57,1.57,0,0,1,1.625-.013l5.008,2.971H32.9Z" transform="translate(0)"/>
  </g>
</svg>
