<svg xmlns="http://www.w3.org/2000/svg" width="24.425" height="22.724" viewBox="0 0 24.425 22.724">
  <defs>
    <style>
      .cls-1 {
        fill: #3057e0;
      }
    </style>
  </defs>
  <g id="noun_accounting_2802239" transform="translate(-336.2 -63.103)">
    <g id="Group_474" data-name="Group 474" transform="translate(336.2 63.103)">
      <path id="Path_396" data-name="Path 396" class="cls-1" d="M401.443,71.4a11.332,11.332,0,0,0-21.643-.621l1.533.191a9.828,9.828,0,0,1,18.66.84l-1.3.362,3,2.925,1.044-4.058Z" transform="translate(-378.312 -63.103)"/>
      <path id="Path_397" data-name="Path 397" class="cls-1" d="M351.065,387.617a9.843,9.843,0,0,1-12.12-6.83l1.3-.362-3-2.925-1.044,4.058,1.3-.362a11.328,11.328,0,0,0,21.64.614l-1.533-.191A9.823,9.823,0,0,1,351.065,387.617Z" transform="translate(-336.2 -366.769)"/>
      <path id="Path_398" data-name="Path 398" class="cls-1" d="M640.425,199.979V184.5H636.5v15.482A8.52,8.52,0,0,0,640.425,199.979Z" transform="translate(-626.25 -180.356)"/>
      <path id="Path_399" data-name="Path 399" class="cls-1" d="M791.729,309.2H787.8v10.827a8.576,8.576,0,0,0,3.929-3.246V309.2Z" transform="translate(-772.386 -300.8)"/>
      <path id="Path_400" data-name="Path 400" class="cls-1" d="M489.029,324.28V313.6H485.1v7.451A8.541,8.541,0,0,0,489.029,324.28Z" transform="translate(-480.018 -305.05)"/>
    </g>
  </g>
</svg>
