<svg xmlns="http://www.w3.org/2000/svg" width="25.53" height="25.53" viewBox="0 0 25.53 25.53">
  <defs>
    <style>
      .cls-1 {
        fill: #3057e0;
      }
    </style>
  </defs>
  <g id="noun_affiliate_marketing_3243865" data-name="noun_affiliate marketing_3243865" transform="translate(-6.418 -3.724)">
    <g id="Group_475" data-name="Group 475" transform="translate(6.418 3.724)">
      <path id="Path_404" data-name="Path 404" class="cls-1" d="M8.242,18.313A1.821,1.821,0,0,0,10,16.936h1.556a7.626,7.626,0,0,0,1.923,4.628l-1.1,1.1a1.835,1.835,0,1,0,.635.635l1.1-1.1a7.585,7.585,0,0,0,4.623,1.923v1.551a1.824,1.824,0,1,0,.894,0V24.121A7.62,7.62,0,0,0,24.258,22.2l1.1,1.1a1.814,1.814,0,1,0,1.56-.9,1.831,1.831,0,0,0-.93.264l-1.1-1.1a7.609,7.609,0,0,0,1.927-4.628h1.516a1.81,1.81,0,1,0,.1-.894H26.815a7.6,7.6,0,0,0-1.923-4.632l1.1-1.1a1.772,1.772,0,0,0,.926.264,1.835,1.835,0,1,0-1.56-.894l-1.1,1.1a7.593,7.593,0,0,0-4.628-1.923V7.306a1.824,1.824,0,1,0-.894,0V8.857a7.6,7.6,0,0,0-4.632,1.923L13,9.68a1.788,1.788,0,0,0,.264-.93,1.845,1.845,0,1,0-.894,1.56l1.1,1.1a7.616,7.616,0,0,0-1.918,4.632H10a1.819,1.819,0,1,0-1.757,2.271Zm10.941-5.826a2.023,2.023,0,1,1-2.021,2.025A2.026,2.026,0,0,1,19.183,12.488Zm0,6.572A5.717,5.717,0,0,1,23.815,21.4a6.727,6.727,0,0,1-9.26,0A5.714,5.714,0,0,1,19.183,19.06Z" transform="translate(-6.418 -3.724)"/>
    </g>
  </g>
</svg>
