<svg id="noun_Blog_3302887" xmlns="http://www.w3.org/2000/svg" width="22.145" height="22.145" viewBox="0 0 22.145 22.145">
  <defs>
    <style>
      .cls-1 {
        fill: #3057e0;
      }
    </style>
  </defs>
  <g id="Group_471" data-name="Group 471">
    <g id="Group_470" data-name="Group 470">
      <path id="Path_385" data-name="Path 385" class="cls-1" d="M3931.691,4386h14.763a3.69,3.69,0,0,1,3.69,3.69v14.764a3.69,3.69,0,0,1-3.69,3.69h-14.763a3.69,3.69,0,0,1-3.691-3.69V4389.69A3.69,3.69,0,0,1,3931.691,4386Zm11.534,1.912a.831.831,0,1,0,.831.831A.831.831,0,0,0,3943.225,4387.912Zm2.706,0a.831.831,0,1,0,.83.831A.831.831,0,0,0,3945.931,4387.912Zm-16.134,16.868a1.325,1.325,0,0,0,1.325,1.326h15.9a1.325,1.325,0,0,0,1.325-1.326V4390.95H3929.8Zm1.415-11.693h9.965v11.294h-9.965Zm11.515-.11h4.207v2.768h-4.207Zm0,4.207h4.207v2.326h-4.207Zm0,3.765h4.207v3.321h-4.207Z" transform="translate(-3928 -4386)"/>
    </g>
  </g>
</svg>
