<svg xmlns="http://www.w3.org/2000/svg" width="17.922" height="20.335" viewBox="0 0 17.922 20.335">
  <defs>
    <style>
      .cls-1 {
        fill: #3057e0;
      }
    </style>
  </defs>
  <g id="noun_case_study_4015005" data-name="noun_case study_4015005" transform="translate(-2.78 -1)">
    <g id="Group_472" data-name="Group 472" transform="translate(2.78 1)">
      <path id="Path_393" data-name="Path 393" class="cls-1" d="M2.78,3.034V19.01a2.329,2.329,0,0,0,2.325,2.325H20.024a.68.68,0,0,0,.678-.678V3.386a.68.68,0,0,0-.678-.678H18.289V1.678A.68.68,0,0,0,17.611,1H4.814A2.039,2.039,0,0,0,2.78,3.034Zm9.429,7.239.129-.136a.675.675,0,0,1,.956,0l1.64,1.64a1.542,1.542,0,0,1,0,2.183,1.555,1.555,0,0,1-2.183,0l-1.634-1.64a.675.675,0,0,1,0-.956l.129-.136-.21-.21a3.473,3.473,0,0,1-1.912.576,3.446,3.446,0,1,1,2.867-1.539Zm6.08,7.09V4.064h1.057V19.98H5.105a.969.969,0,0,1,0-1.939H17.611A.68.68,0,0,0,18.289,17.363Z" transform="translate(-2.78 -1)"/>
      <path id="Path_394" data-name="Path 394" class="cls-1" d="M18.617,18.027a.184.184,0,0,0,0-.264L17.464,16.61l-.264.258,1.159,1.159A.176.176,0,0,0,18.617,18.027Z" transform="translate(-7.426 -6.029)"/>
      <ellipse id="Ellipse_36" data-name="Ellipse 36" class="cls-1" cx="2.086" cy="2.089" rx="2.086" ry="2.089" transform="translate(4.262 5.063)"/>
    </g>
  </g>
</svg>
