<svg xmlns="http://www.w3.org/2000/svg" width="22.375" height="22.374" viewBox="0 0 22.375 22.374">
  <defs>
    <style>
      .cls-1 {
        fill: #3057e0;
      }
    </style>
  </defs>
  <path id="support" class="cls-1" d="M11.188,19.578a12.745,12.745,0,0,1-2.928-.35,12.441,12.441,0,0,1-1.518,1.518,9.722,9.722,0,0,1-1.311.95,5.613,5.613,0,0,1-1.038.47,5.174,5.174,0,0,1-.656.186,1.815,1.815,0,0,1-.241.022,7.58,7.58,0,0,0,.656-2.72,5.861,5.861,0,0,0-.306-2.479,10.177,10.177,0,0,1-2.819-3.3A8.626,8.626,0,0,1,.885,5.987,9.852,9.852,0,0,1,3.267,2.863,11.442,11.442,0,0,1,6.839.776a12.575,12.575,0,0,1,8.7,0,11.417,11.417,0,0,1,3.573,2.086A9.862,9.862,0,0,1,21.49,5.987a8.608,8.608,0,0,1,0,7.6,9.862,9.862,0,0,1-2.382,3.124A11.435,11.435,0,0,1,15.536,18.8,12.3,12.3,0,0,1,11.188,19.578Zm-1.4-3.5a.691.691,0,0,0,.2.492.662.662,0,0,0,.5.208h1.4a.709.709,0,0,0,.7-.7v-1.4a.663.663,0,0,0-.208-.5.688.688,0,0,0-.492-.2h-1.4a.672.672,0,0,0-.7.7ZM11.188,2.8a6.686,6.686,0,0,0-3.321.819,4.4,4.4,0,0,0-2.01,2.109L8.391,6.992q0-.59.819-.994a4.423,4.423,0,0,1,1.978-.4,4.446,4.446,0,0,1,1.978.4q.819.4.819.983t-.819.994a4.344,4.344,0,0,1-1.978.415,1.38,1.38,0,0,0-1.4,1.4v2.1a.691.691,0,0,0,.2.492.662.662,0,0,0,.5.208h1.4a.709.709,0,0,0,.7-.7v-.852a5.889,5.889,0,0,0,3-1.475,3.447,3.447,0,0,0,1.191-2.568,3.613,3.613,0,0,0-1.639-2.972A6.428,6.428,0,0,0,11.188,2.8Z"/>
</svg>
